<svg width="122.88" height="122.31" xmlns="http://www.w3.org/2000/svg" data-name="Layer 1">

 <title>linkedin-app</title>
 <g>
  <title>Layer 1</title>
  <path id="svg_1" fill-rule="evenodd" fill="#000062" d="m27.75,0l67.38,0a27.83,27.83 0 0 1 27.75,27.75l0,66.82a27.83,27.83 0 0 1 -27.75,27.74l-67.38,0a27.83,27.83 0 0 1 -27.75,-27.74l0,-66.82a27.83,27.83 0 0 1 27.75,-27.75z" class="cls-1"/>
  <path id="svg_2" fill="#fff" fill-rule="evenodd" d="m49.19,47.41l15.53,0l0,8l0.22,0c2.17,-3.88 7.45,-8 15.34,-8c16.39,0 19.42,10.2 19.42,23.47l0,28.06l-16.19,0l0,-24.94c0,-5.71 -0.12,-13.06 -8.42,-13.06s-9.72,6.21 -9.72,12.65l0,25.4l-16.18,0l0,-51.58zm-9.19,-15.62a8.42,8.42 0 1 1 -8.42,-8.42a8.43,8.43 0 0 1 8.42,8.42zm-16.82,15.62l16.82,0l0,51.53l-16.82,0l0,-51.53z" class="cls-2"/>
 </g>
</svg>